<?xml version="1.0" encoding="utf-8"?>
<!-- Generator: Adobe Illustrator 16.0.3, SVG Export Plug-In . SVG Version: 6.00 Build 0)  -->
<!DOCTYPE svg PUBLIC "-//W3C//DTD SVG 1.1//EN" "http://www.w3.org/Graphics/SVG/1.1/DTD/svg11.dtd">
<svg version="1.1" id="Слой_1" xmlns="http://www.w3.org/2000/svg" xmlns:xlink="http://www.w3.org/1999/xlink" x="0px" y="0px"
	 width="325.768px" height="36.85px" viewBox="0 0 325.768 36.85" enable-background="new 0 0 325.768 36.85" xml:space="preserve">
<path fill="#FFFFFF" d="M325.768,0H0v5.355l0,0c1.445,0,2.617,1.171,2.617,2.616S1.445,10.588,0,10.588l0,0v5.233l0,0
	c1.445,0,2.617,1.17,2.617,2.616c0,1.446-1.171,2.617-2.617,2.617l0,0v5.232c1.445,0,2.617,1.171,2.617,2.616S1.445,31.519,0,31.519
	v5.336h325.768v-5.355l0,0c-1.445,0-2.617-1.171-2.617-2.616s1.172-2.616,2.617-2.616l0,0v-5.233l0,0
	c-1.445,0-2.617-1.171-2.617-2.616c0-1.445,1.172-2.616,2.617-2.616l0,0v-5.233c-1.445,0-2.617-1.172-2.617-2.616
	c0-1.445,1.172-2.616,2.617-2.616V0L325.768,0z"/>
</svg>
