<svg xmlns="http://www.w3.org/2000/svg" viewBox="0 0 2518.07 2518.06"><defs><style>.cls-1{fill:#fff;}</style></defs><title>instagram-logo</title><g id="Слой_2" data-name="Слой 2"><g id="Layer_1" data-name="Layer 1"><path class="cls-1" d="M1786.11,0H732C328.35,0,0,328.35,0,732V1786.11c0,403.6,328.35,732,732,732H1786.11c403.6,0,732-328.35,732-732V732C2518.06,328.35,2189.71,0,1786.11,0ZM2345.7,1786.11a559.16,559.16,0,0,1-559.59,559.59H732a559.16,559.16,0,0,1-559.58-559.59V732A559.16,559.16,0,0,1,732,172.37H1786.11A559.16,559.16,0,0,1,2345.69,732Z"/><path class="cls-1" d="M1259,629.49C911.9,629.49,629.49,911.9,629.49,1259S911.9,1888.57,1259,1888.57s629.54-282.41,629.54-629.54S1606.16,629.49,1259,629.49ZM1680.26,1437a458.52,458.52,0,1,1,35.95-178A455.59,455.59,0,0,1,1680.26,1437Z"/><path class="cls-1" d="M1934.88,472.93a116.63,116.63,0,1,0,116.63,116.63A116.77,116.77,0,0,0,1934.88,472.93Z"/></g></g></svg>