<?xml version="1.0" encoding="utf-8"?>
<!-- Generator: Adobe Illustrator 16.0.3, SVG Export Plug-In . SVG Version: 6.00 Build 0)  -->
<!DOCTYPE svg PUBLIC "-//W3C//DTD SVG 1.1//EN" "http://www.w3.org/Graphics/SVG/1.1/DTD/svg11.dtd">
<svg version="1.1" id="Слой_1" xmlns="http://www.w3.org/2000/svg" xmlns:xlink="http://www.w3.org/1999/xlink" x="0px" y="0px"
	 width="3114.307px" height="697.778px" viewBox="0 0 3114.307 697.778" enable-background="new 0 0 3114.307 697.778"
	 xml:space="preserve">
<g>
	<path fill="#FFFFFF" d="M827.56,167.418l-87.499,374.026h62.425l19.067-95.073h89.85l19.329,95.073h66.081l-87.76-374.026H827.56z
		 M831.478,397.267l35-174.476l35,174.476H831.478z"/>
	<path fill="#FFFFFF" d="M1275.331,337.062c4.44-8.444,7.615-18.022,9.533-28.731c1.914-10.709,2.873-22.503,2.873-35.392
		c0-16.193-2.048-30.82-6.138-43.88c-4.093-13.06-10.538-24.16-19.328-33.302c-8.795-9.142-20.071-16.148-33.824-21.025
		c-13.758-4.873-30.298-7.314-49.626-7.314h-102.648v374.026h62.686V392.826h31.604c12.361,0,22.332,4.792,29.906,14.366
		c7.575,9.578,11.884,23.597,12.929,42.052l2.612,48.059c0.869,11.668,1.914,20.765,3.134,27.295
		c1.216,6.529,2.351,12.146,3.396,16.847h63.992c-1.045-3.828-2.44-9.052-4.179-15.672c-1.743-6.615-2.963-15.32-3.657-26.119
		l-2.612-53.544c-1.567-23.679-6.183-41.309-13.843-52.891c-7.664-11.578-17.589-18.586-29.776-21.026
		c10.097-3.135,18.675-7.66,25.728-13.582C1265.144,352.692,1270.89,345.51,1275.331,337.062z M1210.816,326.876
		c-7.926,10.187-21.116,15.279-39.571,15.279h-32.388V220.44h26.903c10.619,0,19.589,1.004,26.903,3.003
		c7.313,2.004,13.19,5.314,17.63,9.926c4.44,4.615,7.615,10.709,9.533,18.283c1.914,7.574,2.873,16.848,2.873,27.817
		C1222.7,300.887,1218.738,316.689,1210.816,326.876z"/>
	<polygon fill="#FFFFFF" points="1350.903,223.836 1430.306,223.836 1430.306,541.444 1494.82,541.444 1494.82,223.836 
		1574.222,223.836 1574.222,167.418 1350.903,167.418 	"/>
	<rect x="1650.709" y="167.418" fill="#FFFFFF" width="64.515" height="374.026"/>
	<path fill="#FFFFFF" d="M2003.799,374.543c-7.142-8.88-16.193-17.062-27.163-24.552c-10.971-7.484-24.03-15.06-39.179-22.724
		l-22.463-11.754c-5.053-2.783-10.187-5.787-15.41-9.011c-5.224-3.22-9.925-6.922-14.104-11.101
		c-4.179-4.18-7.574-9.053-10.187-14.627c-2.611-5.57-3.918-12.101-3.918-19.59c0-5.048,0.824-10.316,2.481-15.801
		c1.653-5.486,4.31-10.534,7.967-15.15c3.656-4.611,8.312-8.443,13.974-11.492c5.656-3.044,12.492-4.57,20.503-4.57
		c11.142,0,22.94,1.959,35.392,5.877c12.447,3.918,26.16,11.189,41.138,21.809l25.074-43.879
		c-9.754-7.661-19.197-14.016-28.339-19.067c-9.142-5.049-18.198-9.097-27.164-12.146c-8.971-3.045-17.806-5.18-26.511-6.399
		c-8.709-1.216-17.5-1.828-26.381-1.828c-14.802,0-28.515,2.612-41.137,7.835c-12.627,5.225-23.553,12.538-32.78,21.941
		c-9.231,9.402-16.455,20.723-21.679,33.954c-5.224,13.235-7.836,27.948-7.836,44.142c0,13.06,1.784,24.552,5.354,34.477
		c3.567,9.926,8.836,18.938,15.803,27.033c6.962,8.098,15.581,15.541,25.857,22.332c10.272,6.791,22.111,13.672,35.522,20.635
		l18.544,9.925c8.358,4.354,15.758,8.403,22.201,12.146c6.44,3.746,11.885,7.881,16.325,12.406
		c4.439,4.53,7.835,9.754,10.187,15.672c2.351,5.922,3.525,13.149,3.525,21.679c0,6.098-0.873,12.235-2.611,18.414
		c-1.743,6.183-4.571,11.754-8.489,16.717c-3.918,4.962-8.97,9.056-15.148,12.275c-6.184,3.225-13.713,4.832-22.594,4.832
		c-7.664,0-14.978-0.608-21.939-1.828c-6.967-1.216-13.889-3.09-20.765-5.615c-6.881-2.522-13.934-5.657-21.157-9.403
		c-7.228-3.742-14.933-8.228-23.115-13.451l-24.813,48.843c5.571,4.179,12.101,8.447,19.59,12.798
		c7.484,4.354,15.933,8.358,25.336,12.015c9.402,3.657,19.761,6.616,31.081,8.881c11.317,2.261,23.508,3.396,36.567,3.396
		c17.238,0,32.865-2.742,46.884-8.228c14.015-5.485,25.988-13.101,35.913-22.854c9.926-9.749,17.541-21.197,22.854-34.347
		c5.31-13.145,7.967-27.466,7.967-42.966c0-14.451-1.743-27.119-5.225-38.003C2016.247,393.308,2010.938,383.424,2003.799,374.543z"
		/>
	<polygon fill="#FFFFFF" points="2080.024,223.836 2159.427,223.836 2159.427,541.444 2223.94,541.444 2223.94,223.836 
		2303.343,223.836 2303.343,167.418 2080.024,167.418 	"/>
	<rect x="2379.83" y="167.418" fill="#FFFFFF" width="64.515" height="374.026"/>
	<polygon fill="#FFFFFF" points="2779.41,167.418 2712.546,167.418 2611.465,335.364 2613.293,167.418 2548.778,167.418 
		2548.778,541.444 2613.293,541.444 2611.465,417.64 2646.203,364.879 2717.77,541.444 2786.463,541.444 2688.777,309.506 	"/>
	<path fill="#FFFFFF" d="M3008.695,167.418h-81.49l-87.5,374.026h62.424l19.068-95.073h89.85l19.328,95.073h66.082L3008.695,167.418
		z M2931.123,397.267l34.998-174.476l35,174.476H2931.123z"/>
	<path fill="#FFFFFF" d="M609.879,23.417H468.242c-76.699,0-122.49,36.642-147.398,67.38
		c-26.204,32.338-34.784,64.277-35.675,67.811l-43.055,170.563c-21.879-16.414-50.878-25.601-82.018-25.601
		c-29.696,0-59.64,8.431-84.314,23.738c-32.285,20.027-53.134,50.107-57.198,82.528c-3.513,28.026,5.672,55.02,25.865,76.005
		c22.585,23.471,57.166,36.931,94.876,36.931c29.696,0,59.639-8.431,84.315-23.737c29.274-18.16,49.144-44.586,55.625-73.526
		l0.001,0.001l36.875-145.533h157.845l16.155-59.834h-158.84l11.847-46.756c0.313-1.137,6.87-24.279,25.541-46.568
		c24.218-28.908,57.713-43.566,99.552-43.566h117.342L481.901,480.96c-21.91-16.539-51.018-25.801-82.283-25.801
		c-29.696,0-59.64,8.431-84.315,23.738c-32.286,20.028-53.133,50.109-57.196,82.53c-3.513,28.027,5.672,55.018,25.865,76.003
		c22.585,23.47,57.167,36.931,94.876,36.931c29.695,0,59.639-8.43,84.314-23.738c27.101-16.812,46.137-40.708,53.958-67.124
		l0.004,0.003l0.028-0.109c0.602-2.039,1.139-4.093,1.604-6.16l128.675-493.98h48.743l14.958-59.835h-48.116H609.879z
		 M221.466,409.063c-1.806,14.407-12.511,28.668-29.369,39.126c-15.332,9.511-34.073,14.748-52.773,14.748
		c-21.529,0-40.396-6.773-51.76-18.584c-7.635-7.934-10.868-17.043-9.611-27.074c1.806-14.406,12.511-28.667,29.369-39.125
		c15.332-9.511,34.074-14.749,52.773-14.749c21.529,0,40.396,6.774,51.76,18.585C219.49,389.924,222.723,399.033,221.466,409.063z
		 M460.989,560.652c-1.807,14.406-12.511,28.668-29.369,39.125c-15.331,9.512-34.073,14.749-52.772,14.749
		c-21.53,0-40.396-6.774-51.762-18.584c-7.634-7.934-10.867-17.043-9.609-27.073c1.805-14.407,12.51-28.668,29.368-39.126
		c15.333-9.511,34.074-14.749,52.774-14.749c21.529,0,40.396,6.773,51.76,18.585C459.013,541.513,462.246,550.621,460.989,560.652z"
		/>
</g>
</svg>
