<?xml version="1.0" encoding="utf-8"?>
<!-- Generator: Adobe Illustrator 16.0.3, SVG Export Plug-In . SVG Version: 6.00 Build 0)  -->
<!DOCTYPE svg PUBLIC "-//W3C//DTD SVG 1.1//EN" "http://www.w3.org/Graphics/SVG/1.1/DTD/svg11.dtd">
<svg version="1.1" id="Слой_1" xmlns="http://www.w3.org/2000/svg" xmlns:xlink="http://www.w3.org/1999/xlink" x="0px" y="0px"
	 width="3114.307px" height="697.778px" viewBox="0 0 3114.307 697.778" enable-background="new 0 0 3114.307 697.778"
	 xml:space="preserve">
<g>
	<g>
		<path fill="#FFFFFF" d="M83.379,245.127c13.399-31.73,32.627-60.24,57.112-84.723c24.485-24.488,52.977-43.691,84.714-57.115
			c32.847-13.902,67.75-20.945,103.729-20.945V41.344c-41.504,0-81.773,8.131-119.708,24.165
			c-36.611,15.513-69.492,37.678-97.73,65.909c-28.242,28.231-50.415,61.114-65.901,97.733
			c-16.038,37.928-24.172,78.201-24.172,119.717s8.135,81.766,24.172,119.693c0.022,0.045,0.037,0.08,0.052,0.117l36.755-18.379
			c-13.251-32.178-19.964-66.283-19.964-101.432C62.438,312.881,69.473,277.975,83.379,245.127z"/>
		<path fill="#FFFFFF" d="M451.933,471.936L451.933,471.936V115.597l56.844-28.407V41.344L272.271,159.596
			c-22.695,11.352-39.104,25.746-50.212,43.979c-10.862,17.828-16.129,38.537-16.129,63.336v75.869l-68.537,34.186v45.832
			l68.537-34.188v114.82c-12.068-6.998-26.062-11.014-41.005-11.014c-45.224,0-82.001,36.789-82.001,82.01
			c0,45.213,36.777,82.008,82.001,82.008c45.221,0,81.998-36.78,81.998-81.993l0,0V368.167L410.94,286.37v114.57
			c-12.068-7-26.073-11.014-41.012-11.014c-45.217,0-81.994,36.789-81.994,82.01s36.777,82.001,81.994,82.001
			C415.141,553.937,451.933,517.157,451.933,471.936z M164.924,615.426c-22.603,0-40.997-18.387-40.997-41
			c0-22.614,18.394-40.994,40.997-40.994c22.614,0,41.005,18.38,41.005,40.994C205.929,597.04,187.539,615.426,164.924,615.426z
			 M246.922,322.334v-55.424c0-34.209,13.064-55.338,43.688-70.643l120.33-60.153v104.446L246.922,322.334z M328.935,471.936
			c0-22.607,18.394-41.002,40.994-41.002c22.617,0,41.012,18.395,41.012,41.002c0,22.613-18.395,41.008-41.012,41.008
			C347.329,512.944,328.935,494.549,328.935,471.936z"/>
		<path fill="#FFFFFF" d="M612.289,229.217c-12.049-28.459-28.113-54.652-47.93-78.164l-37.883,18.953
			c20.195,22.246,36.332,47.492,48.051,75.188c13.884,32.832,20.941,67.738,20.941,103.732c0,35.979-7.058,70.879-20.941,103.719
			c-13.428,31.736-32.634,60.24-57.134,84.721c-24.474,24.475-52.977,43.707-84.718,57.123
			c-32.841,13.902-67.747,20.938-103.741,20.938v41.008c41.515,0,81.785-8.131,119.727-24.172
			c36.601-15.498,69.5-37.663,97.727-65.894c28.242-28.245,50.407-61.13,65.901-97.757c16.034-37.92,24.172-78.193,24.172-119.686
			C636.461,307.403,628.323,267.137,612.289,229.217z"/>
	</g>
	<g>
		<path fill="#FFFFFF" d="M937.354,421.737H811.506l-24.797,62.77h-48.188L851.791,213.25h46.007l113.625,271.256h-48.882
			L937.354,421.737z M921.882,382.215l-47.448-118.576l-47.099,118.576H921.882z"/>
		<path fill="#FFFFFF" d="M1243.304,484.506l-51.403-79.428c-2.15,0.258-5.385,0.396-9.693,0.396h-56.822v79.031h-46.753V213.25
			h103.575c21.791,0,40.798,3.881,56.987,11.637c16.174,7.75,28.569,18.865,37.2,33.326c8.624,14.461,12.954,31.648,12.954,51.535
			c0,20.416-4.617,37.973-13.851,52.697c-9.219,14.732-22.467,25.709-39.718,32.936l57.884,89.125H1243.304z M1226.424,269.829
			c-10.539-9.301-26.014-13.939-46.382-13.939h-54.657v108.115h54.657c20.368,0,35.843-4.713,46.382-14.145
			c10.542-9.426,15.813-22.812,15.813-40.111S1236.966,279.143,1226.424,269.829z"/>
		<path fill="#FFFFFF" d="M1430.692,255.889h-83.42V213.25h213.583v42.639h-83.42v228.617h-46.742V255.889z"/>
		<path fill="#FFFFFF" d="M1709.903,255.5v186.764h36.031v42.242h-118.459v-42.242h36.039V255.5h-36.039v-42.25h118.459v42.25
			H1709.903z"/>
		<path fill="#FFFFFF" d="M1866.687,479.485c-18.1-5.947-32.428-13.82-42.955-23.65l16.174-39.141
			c10.291,8.801,22.93,15.969,37.92,21.512c14.975,5.559,30.031,8.33,45.133,8.33c18.688,0,32.648-3.213,41.896-9.689
			c9.219-6.447,13.852-14.969,13.852-25.562c0-7.756-2.588-14.16-7.75-19.188c-5.152-5.051-11.703-8.963-19.57-11.814
			c-7.947-2.854-18.709-6.08-32.391-9.697c-19.174-4.904-34.701-9.801-46.551-14.727c-11.867-4.895-22.07-12.586-30.576-23.055
			s-12.756-24.584-12.756-42.42c0-14.982,3.779-28.627,11.322-40.896c7.557-12.248,18.938-22.012,34.156-29.26
			c15.211-7.213,33.861-10.844,55.902-10.844c15.35,0,30.451,2.072,45.338,6.205c14.828,4.139,27.672,10.086,38.441,17.834
			l-14.732,39.127c-11.02-6.977-22.539-12.264-34.502-15.895c-12.004-3.604-23.635-5.418-34.898-5.418
			c-18.453,0-32.17,3.359-41.154,10.078c-8.992,6.721-13.484,15.637-13.484,26.725c0,7.756,2.574,14.1,7.729,18.996
			c5.152,4.918,11.674,8.793,19.592,11.623c7.918,2.838,18.688,6.088,32.369,9.689c18.682,4.654,34.023,9.498,46.016,14.527
			c11.998,5.043,22.23,12.732,30.744,23.062c8.498,10.336,12.756,24.283,12.756,41.846c0,14.982-3.771,28.562-11.322,40.691
			c-7.564,12.154-18.982,21.844-34.326,29.062c-15.357,7.242-34.053,10.844-56.1,10.844
			C1903.526,488.381,1884.78,485.418,1866.687,479.485z"/>
		<path fill="#FFFFFF" d="M2161.382,255.889h-83.412V213.25h213.582v42.639h-83.42v228.617h-46.75V255.889z"/>
		<path fill="#FFFFFF" d="M2440.601,255.5v186.764h36.016v42.242h-118.422v-42.242h36.018V255.5h-36.018v-42.25h118.422v42.25
			H2440.601z"/>
		<path fill="#FFFFFF" d="M2652.302,370.202h-46.742v114.305h-46.016V213.25h46.016v113.562h48.205l72.268-113.562h49.609
			l-85.934,131.367l89.16,139.889h-52.836L2652.302,370.202z"/>
		<path fill="#FFFFFF" d="M3018.829,421.737h-125.854l-24.812,62.77h-48.168l113.246-271.256h46.051l113.592,271.256h-48.889
			L3018.829,421.737z M3003.384,382.215l-47.471-118.576l-47.123,118.576H3003.384z"/>
	</g>
</g>
</svg>
