<svg xmlns="http://www.w3.org/2000/svg" viewBox="0 0 85.63 85.63"><defs><style>.cls-1{fill:#fff;}</style></defs><title>mail</title><g id="Слой_2" data-name="Слой 2"><g id="Слой_1-2" data-name="Слой 1"><path class="cls-1" d="M42.82,0,0,31.93V75.59a10,10,0,0,0,10,10H75.6a10,10,0,0,0,10-10V31.93ZM76.4,33.4l-33.59,25L9.23,33.4,42.82,8.35ZM75.6,78.94H10a3.35,3.35,0,0,1-3.35-3.34V39.85L42.82,66.72,78.94,39.85V75.59A3.35,3.35,0,0,1,75.6,78.94Z"/><path class="cls-1" d="M51.27,27.64c-2.16-1.73-6.33-2.07-8.45,2.37-2.12-4.44-6.29-4.1-8.45-2.37-2.35,1.88-2,5.48.23,7.5,2,1.78,8.22,6.72,8.22,6.72s6.25-4.94,8.22-6.72C53.28,33.12,53.62,29.52,51.27,27.64Z"/></g></g></svg>