<svg xmlns="http://www.w3.org/2000/svg" xmlns:xlink="http://www.w3.org/1999/xlink" width="0" height="0" style="position:absolute">
	
		<symbol id="arrow-cursor" viewBox="0 0 11.05 10.85">
			<defs><style></style></defs><g id="Слой_2" data-name="Слой 2"><path class="cls-1" d="M5.62 0l-.71.71 4.22 4.22H0v1h9.13l-4.22 4.22.71.71 5.43-5.43L5.62 0z" id="Слой_6" data-name="Слой 6"></path></g>
		</symbol>
	
		<symbol id="icon-archive" viewBox="0 0 755.54 660.09">
			<defs><style></style></defs><g id="Слой_2" data-name="Слой 2"><g id="Слой_1-2" data-name="Слой 1"><path class="cls-1" d="M298.93 135.43v219.49l102.83 102.83 42.43-42.43-85.26-85.25V135.43h-60z"></path><path class="cls-1" d="M496.78 310.68l129.38 129.38 129.38-129.38-42.42-42.43L660 321.38a330 330 0 1 0-559.93 245.44 330.16 330.16 0 0 0 515.18-70.57l-51.88-30.15a269.92 269.92 0 1 1 36.75-136.94l-60.91-60.91z"></path></g></g>
		</symbol>
	
		<symbol id="icon-clock" viewBox="0 0 41.36 41.36">
			<defs><style></style></defs><g id="Слой_2" data-name="Слой 2"><g id="Слой_1-2" data-name="Слой 1"><path class="cls-1" d="M20.68 0a20.68 20.68 0 1 0 20.68 20.68A20.71 20.71 0 0 0 20.68 0zm0 37.86a17.18 17.18 0 1 1 17.18-17.18 17.2 17.2 0 0 1-17.18 17.18z"></path><path class="cls-1" d="M22.43 7.82h-3.5v13.53l8.15 9.06 2.6-2.34-7.25-8.06V7.82z"></path></g></g>
		</symbol>
	
		<symbol id="icon-mail" viewBox="0 0 85.63 85.63">
			<defs><style></style></defs><g id="Слой_2" data-name="Слой 2"><g id="Слой_1-2" data-name="Слой 1"><path class="cls-1" d="M42.82 0L0 31.93v43.66a10 10 0 0 0 10 10h65.6a10 10 0 0 0 10-10V31.93zM76.4 33.4l-33.59 25-33.58-25L42.82 8.35zm-.8 45.54H10a3.35 3.35 0 0 1-3.35-3.34V39.85l36.17 26.87 36.12-26.87v35.74a3.35 3.35 0 0 1-3.34 3.35z"></path><path class="cls-1" d="M51.27 27.64c-2.16-1.73-6.33-2.07-8.45 2.37-2.12-4.44-6.29-4.1-8.45-2.37-2.35 1.88-2 5.48.23 7.5 2 1.78 8.22 6.72 8.22 6.72s6.25-4.94 8.22-6.72c2.24-2.02 2.58-5.62.23-7.5z"></path></g></g>
		</symbol>
	
		<symbol id="icon-pin" viewBox="0 0 31.03 37.47">
			<defs><style></style></defs><g id="Слой_2" data-name="Слой 2"><g id="Слой_1-2" data-name="Слой 1"><path class="cls-1" d="M26.49 4.55A15.52 15.52 0 1 0 4.55 26.49l11 11 11-11a15.54 15.54 0 0 0-.06-21.94zM24 24l-8.5 8.5L7 24a12 12 0 1 1 17 0z"></path><circle class="cls-1" cx="15.52" cy="15.52" r="4.93"></circle></g></g>
		</symbol>
	
		<symbol id="icon-plain" viewBox="0 0 109.29 108.26">
			<defs><style></style></defs><g id="Слой_2" data-name="Слой 2"><path class="cls-1" d="M0 47.29l30.83 24.48v29.53L49.9 86.92l26.88 21.35L109.29 0zm19.29 2.55l61.48-26.6-44.23 40.29zm52.16 41.42l-27-21.42 46-41.9z" id="Слой_1-2" data-name="Слой 1"></path></g>
		</symbol>
	
		<symbol id="icon-plus" viewBox="0 0 18.44 18.44">
			<defs><style></style></defs><g id="Слой_2" data-name="Слой 2"><path class="cls-1" d="M18.45 7.47h-7.48V0h-3.5v7.47H0v3.5h7.47v7.47h3.5v-7.47h7.48v-3.5z" id="Режим_изоляции" data-name="Режим изоляции"></path></g>
		</symbol>
	
		<symbol id="icon-search" viewBox="0 0 27.98 27.98">
			<defs><style></style></defs><g id="Слой_2" data-name="Слой 2"><path class="cls-1" d="M24.3 3.68A12.58 12.58 0 0 0 3.29 16l3.13-.88a9.33 9.33 0 1 1 2.38 4.06L7.65 18 0 25.68 2.3 28l5.43-5.43A12.58 12.58 0 0 0 24.3 3.68z" id="Слой_1-2" data-name="Слой 1"></path></g>
		</symbol>
	
</svg>
