<svg xmlns="http://www.w3.org/2000/svg" viewBox="0 0 85.63 85.63"><defs><style/></defs><g id="Слой_2" data-name="Слой 2"><g id="Слой_1-2" data-name="Слой 1"><path class="cls-1" d="M42.82 0L0 31.93v43.66a10 10 0 0 0 10 10h65.6a10 10 0 0 0 10-10V31.93zM76.4 33.4l-33.59 25-33.58-25L42.82 8.35zm-.8 45.54H10a3.35 3.35 0 0 1-3.35-3.34V39.85l36.17 26.87 36.12-26.87v35.74a3.35 3.35 0 0 1-3.34 3.35z"/><path class="cls-1" d="M51.27 27.64c-2.16-1.73-6.33-2.07-8.45 2.37-2.12-4.44-6.29-4.1-8.45-2.37-2.35 1.88-2 5.48.23 7.5 2 1.78 8.22 6.72 8.22 6.72s6.25-4.94 8.22-6.72c2.24-2.02 2.58-5.62.23-7.5z"/></g></g></svg>